<svg width="20" height="20" viewBox="0 0 20 20" fill="none" xmlns="http://www.w3.org/2000/svg">
<path d="M10.0001 10.8333C10.4603 10.8333 10.8334 10.4602 10.8334 10C10.8334 9.53976 10.4603 9.16667 10.0001 9.16667C9.53984 9.16667 9.16675 9.53976 9.16675 10C9.16675 10.4602 9.53984 10.8333 10.0001 10.8333Z" fill="#ffffff" stroke="#ffffff" stroke-width="1.5" stroke-linecap="round" stroke-linejoin="round"/>
<path d="M10.0001 5C10.4603 5 10.8334 4.6269 10.8334 4.16667C10.8334 3.70643 10.4603 3.33333 10.0001 3.33333C9.53984 3.33333 9.16675 3.70643 9.16675 4.16667C9.16675 4.6269 9.53984 5 10.0001 5Z" fill="#ffffff" stroke="#ffffff" stroke-width="1.5" stroke-linecap="round" stroke-linejoin="round"/>
<path d="M10.0001 16.6667C10.4603 16.6667 10.8334 16.2936 10.8334 15.8333C10.8334 15.3731 10.4603 15 10.0001 15C9.53984 15 9.16675 15.3731 9.16675 15.8333C9.16675 16.2936 9.53984 16.6667 10.0001 16.6667Z" fill="#ffffff" stroke="#ffffff" stroke-width="1.5" stroke-linecap="round" stroke-linejoin="round"/>
</svg>
