<svg width="24" height="24" viewBox="0 0 24 24" fill="none" xmlns="http://www.w3.org/2000/svg">
<rect width="24" height="24" rx="12" fill="#57534E"/>
<path d="M11.7998 6.79999C12.3521 6.79999 12.7998 6.35227 12.7998 5.79999C12.7998 5.2477 12.3521 4.79999 11.7998 4.79999C11.2475 4.79999 10.7998 5.2477 10.7998 5.79999C10.7998 6.35227 11.2475 6.79999 11.7998 6.79999Z" fill="white" stroke="white" stroke-linecap="round" stroke-linejoin="round"/>
<path d="M11.7998 12.8C12.3521 12.8 12.7998 12.3523 12.7998 11.8C12.7998 11.2477 12.3521 10.8 11.7998 10.8C11.2475 10.8 10.7998 11.2477 10.7998 11.8C10.7998 12.3523 11.2475 12.8 11.7998 12.8Z" fill="white" stroke="white" stroke-linecap="round" stroke-linejoin="round"/>
<path d="M11.7998 18.8C12.3521 18.8 12.7998 18.3523 12.7998 17.8C12.7998 17.2477 12.3521 16.8 11.7998 16.8C11.2475 16.8 10.7998 17.2477 10.7998 17.8C10.7998 18.3523 11.2475 18.8 11.7998 18.8Z" fill="white" stroke="white" stroke-linecap="round" stroke-linejoin="round"/>
</svg>
